<svg width="200" height="37" xmlns="http://www.w3.org/2000/svg"><g fill="none" fill-rule="evenodd"><g fill="#E3392E"><path d="M18.9393939 11.0606061L11.969697 0.606060606 38.4090909 0.833333333 38.1818182 13.030303 29.0909091 17.1969697 38.2575758 31.0606061 38.2575758 36.1363636 35.4545455 36.1363636 21.4393939 15.1515152 33.6363636 10.2272727 33.6363636 5.75757576 21.3636364 5.75757576 23.4848485 9.01515152z"/><path d="M30.1515152 36.1363636L6.59090909 0.606060606 0.303030303 0.606060606 23.7121212 36.1363636z"/><path d="M11.969697 36.1363636L0.303030303 18.8636364 0.303030303 9.46969697 18.4090909 36.1363636z"/><path d="M0.303030303 36.1363636L0.303030303 27.0454545 6.96969697 36.1363636z"/></g><g transform="translate(45.455)" fill="#000"><path d="M15.833 5c-.985.379-2.424.985-4.242 1.894-1.818.909-4.091 2.197-6.818 3.864v25.378H.152V1.364h4.62v5.53h.076c2.576-2.046 4.697-3.56 6.364-4.47 1.667-.909 2.803-1.59 3.41-1.894L15.832 5z"/><path d="M35.606 17.273h-15c0 2.727.227 5 .682 6.894.454 1.818 1.212 3.409 2.273 4.62 1.06 1.213 2.197 2.046 3.484 2.652 1.288.606 2.88.834 4.622.834h1.818c.379 0 .682-.076.985-.076l-.53 4.09c-.304 0-.53.077-.834.077h-1.894c-2.651 0-5-.53-6.894-1.44a11.708 11.708 0 0 1-4.621-3.94 19.152 19.152 0 0 1-2.652-5.757 25.521 25.521 0 0 1-.909-6.818c0-2.803.228-5.151.606-7.121.38-1.97 1.137-3.94 2.273-5.833.985-1.667 2.121-2.88 3.41-3.713A8.012 8.012 0 0 1 26.59.606c1.44 0 2.727.303 3.788.985 1.136.682 2.121 1.59 2.879 2.879.909 1.515 1.515 3.333 1.894 5.454.227 1.97.454 4.47.454 7.349zm-4.394-3.56c-.227-3.258-.757-5.607-1.667-7.122-.833-1.515-1.97-2.273-3.409-2.273-1.439 0-2.575.758-3.56 2.197-.91 1.44-1.591 3.864-1.97 7.273h10.606v-.076zm43.333 22.423h-4.62V12.121c0-2.879-.228-4.773-.683-5.833-.454-.985-1.363-1.515-2.727-1.515-.909 0-1.97.379-3.182 1.06-1.212.758-2.348 1.515-3.409 2.349v28.03h-4.621V12.197c0-1.212 0-2.273-.076-3.182-.075-.909-.151-1.59-.303-2.121-.227-.758-.53-1.288-.985-1.591-.454-.303-1.06-.455-1.894-.455-.909 0-1.97.38-3.257 1.137-1.288.757-2.424 1.59-3.485 2.424v27.803h-4.621V1.363h4.621v3.03h.076c1.363-1.06 2.727-1.969 4.242-2.726C51.136.909 52.576.53 53.94.53c1.364 0 2.5.303 3.41.985.909.682 1.59 1.667 2.045 3.106h.076c1.59-1.212 3.106-2.197 4.545-2.954C65.455.909 66.894.53 68.333.53c2.046 0 3.56.758 4.622 2.349.984 1.515 1.515 3.56 1.515 6.06v20.152c.075 4.015.075 6.44.075 7.045zm27.122 0h-4.622v-3.03h-.075c-1.364 1.136-2.652 2.046-4.015 2.727-1.364.758-2.88 1.137-4.47 1.137-1.97 0-3.56-.758-4.621-2.349-1.061-1.515-1.591-3.788-1.591-6.742V1.364h4.62v24.015c0 2.879.228 4.848.759 5.909.53 1.06 1.439 1.515 2.803 1.515.833 0 1.893-.455 3.333-1.212 1.364-.758 2.5-1.591 3.409-2.424V1.364h4.621V26.97c-.151 3.182-.151 6.212-.151 9.166zm27.348 0h-4.621V12.121c0-2.803-.227-4.773-.606-5.833-.455-1.06-1.288-1.591-2.727-1.591-.91 0-2.046.379-3.334 1.136-1.363.758-2.5 1.591-3.56 2.425v27.727h-4.622V1.136h4.622v3.03h.075c1.364-1.06 2.728-1.969 4.319-2.727 1.515-.757 3.03-1.136 4.394-1.136 1.97 0 3.484.758 4.545 2.349.985 1.515 1.515 3.56 1.515 6.06v27.424zm25.303-18.863h-15c0 2.727.227 5 .682 6.894.455 1.818 1.212 3.409 2.273 4.62 1.06 1.213 2.197 2.046 3.485 2.652 1.287.606 2.878.834 4.62.834h1.819c.379 0 .682-.076.985-.076l-.53 4.09c-.304 0-.53.077-.834.077h-1.894c-2.651 0-5-.53-6.894-1.44a11.708 11.708 0 0 1-4.62-3.94 19.152 19.152 0 0 1-2.652-5.757 25.521 25.521 0 0 1-.91-6.818c0-2.803.228-5.151.607-7.121.378-1.97 1.136-3.94 2.272-5.833.985-1.667 2.121-2.88 3.41-3.713a8.012 8.012 0 0 1 4.166-1.136c1.44 0 2.727.303 3.788.985 1.136.682 2.121 1.59 2.879 2.879.909 1.515 1.515 3.333 1.894 5.454.227 1.97.454 4.47.454 7.349zm-4.394-3.56c-.227-3.258-.757-5.607-1.666-7.122-.834-1.515-1.97-2.273-3.41-2.273-1.439 0-2.575.758-3.56 2.197-.91 1.44-1.591 3.864-1.97 7.273h10.606v-.076z" fill-rule="nonzero"/></g></g></svg>